<?xml version="1.0" encoding="utf-8"?>
<!-- Generator: Adobe Illustrator 26.0.2, SVG Export Plug-In . SVG Version: 6.00 Build 0)  -->
<svg version="1.1" id="Layer_1" xmlns="http://www.w3.org/2000/svg" xmlns:xlink="http://www.w3.org/1999/xlink" x="0px" y="0px"
	 viewBox="0 0 70.5 70.5" style="enable-background:new 0 0 70.5 70.5;" xml:space="preserve">
<style type="text/css">
	.st0{fill:none;}
	.st1{fill:#FFFFFF;}
	.st2{fill:#5F8BFF;}
</style>
<polygon class="st0" points="15.3,21 5.7,21 5.7,64.8 49.5,64.8 49.5,55.2 15.3,55.2 "/>
<polygon class="st1" points="49.5,64.8 5.7,64.8 5.7,21 15.3,21 15.3,15.3 0,15.3 0,70.5 55.2,70.5 55.2,55.2 49.5,55.2 "/>
<polygon class="st2" points="21,21 15.3,21 15.3,55.2 49.5,55.2 49.5,49.5 21,49.5 "/>
<rect x="15.3" y="15.3" class="st2" width="5.7" height="5.7"/>
<rect x="49.5" y="49.5" class="st2" width="5.7" height="5.7"/>
<rect x="45.5" y="0" class="st1" width="5" height="5.7"/>
<polygon class="st1" points="15.3,0 15.3,15.3 21,15.3 21,5.7 29,5.7 29,0 "/>
<rect x="34.7" y="0" class="st1" width="5" height="5.7"/>
<polygon class="st1" points="56.2,0 56.2,5.7 64.8,5.7 64.8,49.5 55.2,49.5 55.2,55.2 70.5,55.2 70.5,0 "/>
<rect x="29" y="5.7" class="st2" width="5.7" height="39.1"/>
<rect x="39.7" y="5.7" class="st2" width="5.8" height="39.7"/>
<rect x="50.5" y="5.7" class="st2" width="5.8" height="40.3"/>
</svg>
