<svg id="Layer_1" data-name="Layer 1" xmlns="http://www.w3.org/2000/svg" viewBox="0 0 70.46 70.47"><polygon points="15.29 20.96 5.65 20.96 5.65 64.81 49.51 64.81 49.51 55.18 15.29 55.18 15.29 20.96" style="fill:none"/><polygon points="49.51 64.81 5.65 64.81 5.65 20.96 15.29 20.96 15.29 15.3 0 15.3 0 70.47 55.17 70.47 55.17 55.18 49.51 55.18 49.51 64.81" style="fill:#31315b"/><polygon points="20.95 20.96 15.29 20.96 15.29 55.18 49.51 55.18 49.51 49.52 20.95 49.52 20.95 20.96" style="fill:#5f8bff"/><rect x="15.29" y="15.3" width="5.66" height="5.66" style="fill:#5f8bff"/><rect x="49.51" y="49.52" width="5.66" height="5.66" style="fill:#5f8bff"/><rect x="45.46" width="5.02" height="5.66" style="fill:#31315b"/><polygon points="15.29 0.01 15.29 15.3 20.95 15.3 20.95 5.66 28.99 5.66 28.99 0.01 15.29 0.01" style="fill:#31315b"/><rect x="34.74" width="4.96" height="5.66" style="fill:#31315b"/><polygon points="56.23 0.01 56.23 5.66 64.81 5.66 64.81 49.52 55.17 49.52 55.17 55.18 70.46 55.18 70.46 0.01 56.23 0.01" style="fill:#31315b"/><rect x="28.99" y="5.66" width="5.75" height="39.1" style="fill:#5f8bff"/><rect x="39.71" y="5.66" width="5.75" height="39.71" style="fill:#5f8bff"/><rect x="50.48" y="5.66" width="5.75" height="40.26" style="fill:#5f8bff"/></svg>